<?xml version="1.0" encoding="utf-8"?>
<!-- Generator: Adobe Illustrator 22.1.0, SVG Export Plug-In . SVG Version: 6.00 Build 0)  -->
<svg version="1.1" id="Capa_1" xmlns="http://www.w3.org/2000/svg" xmlns:xlink="http://www.w3.org/1999/xlink" x="0px" y="0px"
	 viewBox="0 0 279 110" style="enable-background:new 0 0 279 110;" xml:space="preserve">
<style type="text/css">
	.st0{fill:#1B2550;}
	.st1{fill:#FFFFFF;}
	.st2{fill:#F6B435;}
</style>
<rect class="st0" width="279" height="110"/>
<g>
	<g>
		<path class="st1" d="M89.2,53.4c-1.8,0-3.5-0.3-5.1-1c-1.5-0.7-2.9-1.6-4-2.8s-2-2.6-2.7-4.2c-0.6-1.6-0.9-3.4-0.9-5.3
			c0-1.9,0.3-3.7,0.9-5.2c0.6-1.6,1.5-2.9,2.7-4s2.5-2,4-2.6s3.2-0.9,5.1-0.9h14.2V32H89.2c-1.2,0-2.3,0.2-3.2,0.6
			c-1,0.4-1.9,1-2.6,1.7s-1.3,1.6-1.7,2.7s-0.6,2.2-0.6,3.4s0.2,2.4,0.6,3.4s1,2,1.7,2.7s1.6,1.3,2.6,1.8c1,0.4,2.1,0.7,3.2,0.7
			h11.2v-7H88.6v-3.8H105v15.2H89.2z"/>
		<path class="st1" d="M133.5,53.4l-6.6-7.3h-9.8v-4H128c1.6,0,2.9-0.5,3.7-1.3c0.8-0.9,1.3-2.2,1.3-3.9s-0.4-3-1.3-3.8
			s-2.1-1.2-3.7-1.2h-14.2v21.6h-4.5V27.2H128c1.5,0,2.8,0.2,4,0.7c1.2,0.4,2.2,1.1,3,1.9s1.4,1.8,1.9,3c0.4,1.2,0.6,2.5,0.6,4
			c0,2.2-0.5,4-1.4,5.5s-2.3,2.5-4,3.2l7.9,7.9L133.5,53.4L133.5,53.4z"/>
		<path class="st1" d="M169.6,53.4l-3.9-6.6h-12.4l2.2-3.7h8l-5.8-9.8l-11.9,20h-5.2l15-25c0.3-0.5,0.6-0.8,0.9-1.1
			c0.4-0.3,0.8-0.4,1.3-0.4s0.9,0.1,1.3,0.4s0.6,0.6,0.9,1.1l15.1,25L169.6,53.4L169.6,53.4z"/>
		<path class="st1" d="M185.7,46.1v-4.4h10.5c1.6,0,2.9-0.5,3.8-1.4c0.9-0.9,1.4-2.1,1.4-3.6s-0.5-2.7-1.4-3.6
			c-0.9-0.9-2.1-1.3-3.8-1.3h-13.8v21.6h-4.5V27.2h18.4c1.5,0,2.9,0.2,4,0.7c1.2,0.4,2.2,1.1,3,1.9s1.4,1.8,1.9,2.9
			c0.4,1.2,0.6,2.4,0.6,3.9c0,1.4-0.2,2.7-0.6,3.9s-1,2.2-1.9,3c-0.8,0.8-1.8,1.5-3,2s-2.5,0.7-4,0.7
			C196.2,46.1,185.7,46.1,185.7,46.1z"/>
		<path class="st1" d="M209,53.5V27.2h4.6v26.2L209,53.5L209,53.5z M230,53.5V42.1h-13.1V38H230V27.2h4.6v26.2L230,53.5L230,53.5z"
			/>
		<path class="st1" d="M239.4,53.4V27.2h4.6v26.1L239.4,53.4L239.4,53.4z"/>
		<path class="st1" d="M260.6,53.4c-1.8,0-3.5-0.3-5-1s-2.9-1.6-4-2.8s-2-2.6-2.7-4.2s-1-3.4-1-5.3c0-1.9,0.3-3.7,1-5.2
			s1.5-2.9,2.7-4s2.5-2,4-2.6s3.2-0.9,5-0.9h14.2V32h-14.2c-1.2,0-2.3,0.2-3.2,0.6c-1,0.4-1.9,1-2.6,1.7s-1.3,1.6-1.7,2.7
			s-0.6,2.2-0.6,3.4s0.2,2.4,0.6,3.4c0.4,1,1,2,1.7,2.7s1.6,1.3,2.6,1.8c1,0.4,2.1,0.7,3.2,0.7h14.2v4.6L260.6,53.4L260.6,53.4z"/>
	</g>
</g>
<g>
	<g>
		<path class="st2" d="M64.2,55L48.5,19.5H37v3.6h9l14.4,31.6l-19,25.7c-4.8-0.4-9.3-0.3-13.6,0L9,54.7l14.3-31.6h9v21.4
			c-2.7,0.8-4.7,3.3-4.7,6.2c0,3.6,2.9,6.5,6.5,6.5s6.5-2.9,6.5-6.5c0-3.3-2.5-6-5.7-6.4V19.5h-14L5,55l19.3,25.8
			c-8.1,1-14.9,3-19.9,4.8l3.5,3.5c22.7-8,42.2-4.1,53.5-0.3l2.1-3.6c-6.4-2.4-12.7-3.8-18.6-4.6L64.2,55z M38.4,50.7
			c0,2.4-1.9,4.3-4.3,4.3s-4.3-1.9-4.3-4.3s1.9-4.3,4.3-4.3S38.4,48.3,38.4,50.7z"/>
		<path class="st2" d="M10,91.2l2.9,2.9c19.4-6.5,36.2-2.7,45.2,0.5l1.7-2.9C38.9,83.6,20.1,87.6,10,91.2z"/>
		<path class="st2" d="M15.5,96.7l2.2,2.2c17.2-5.8,31.9-0.9,37.1,1.2l1.3-2.1C38.9,89.8,23.1,93.8,15.5,96.7z"/>
	</g>
</g>
<g>
	<g>
		<path class="st1" d="M103.9,84.8l-3.9-6.6H87.6l2.2-3.7h8L92,64.7L80.1,84.9h-5.2l15-25c0.3-0.5,0.6-0.8,0.9-1.1
			c0.4-0.3,0.8-0.4,1.3-0.4s0.9,0.1,1.3,0.4c0.4,0.3,0.6,0.6,0.9,1.1l15.1,25L103.9,84.8L103.9,84.8z"/>
		<path class="st1" d="M120.6,84.8c-1.8,0-3.5-0.3-5.1-1c-1.5-0.7-2.9-1.6-4-2.8c-1.1-1.2-2-2.6-2.7-4.2c-0.6-1.6-0.9-3.4-0.9-5.3
			s0.3-3.7,0.9-5.2c0.6-1.6,1.5-2.9,2.7-4s2.5-2,4-2.6s3.2-0.9,5.1-0.9h14.2v4.6h-14.2c-1.2,0-2.3,0.2-3.2,0.6
			c-0.9,0.4-1.9,1-2.6,1.7s-1.3,1.6-1.7,2.7c-0.4,1-0.6,2.2-0.6,3.4c0,1.2,0.2,2.4,0.6,3.4s1,2,1.7,2.7s1.6,1.3,2.6,1.8
			c1,0.4,2.1,0.7,3.2,0.7h11.2v-6.8H120v-3.8h16.4V85L120.6,84.8L120.6,84.8z"/>
		<path class="st1" d="M140.6,84.8V58.7h23.3v4.6h-18.8v17h18.8v4.6L140.6,84.8L140.6,84.8z M148.4,73.5v-3.8h14.5v3.8H148.4z"/>
		<path class="st1" d="M172.1,65.7v19.1h-4.4V61.1c0-0.8,0.2-1.5,0.6-2s1-0.7,1.7-0.7c0.3,0,0.7,0.1,1,0.2c0.3,0.1,0.6,0.4,1,0.7
			l18.4,18.3V58.5h4.4v23.9c0,0.9-0.2,1.5-0.6,2s-1,0.7-1.6,0.7c-0.7,0-1.4-0.3-2.1-1L172.1,65.7z"/>
		<path class="st1" d="M211.1,84.8c-1.8,0-3.5-0.3-5-1s-2.9-1.6-4-2.8c-1.1-1.2-2-2.6-2.7-4.2c-0.6-1.6-1-3.4-1-5.3s0.3-3.7,1-5.2
			s1.5-2.9,2.7-4s2.5-2,4-2.6s3.2-0.9,5-0.9h14.2v4.6h-14.2c-1.2,0-2.3,0.2-3.2,0.6c-0.9,0.4-1.9,1-2.6,1.7s-1.3,1.6-1.7,2.7
			c-0.4,1-0.6,2.2-0.6,3.4c0,1.2,0.2,2.4,0.6,3.4c0.4,1.1,1,2,1.7,2.7s1.6,1.3,2.6,1.8c1,0.4,2.1,0.7,3.2,0.7h14.2V85L211.1,84.8
			L211.1,84.8z"/>
		<path class="st1" d="M241.1,84.8v-9.9l-13.9-16.2h6.1l10.2,12l10.2-12h5.8l-13.9,16.2v9.9C245.6,84.8,241.1,84.8,241.1,84.8z"/>
	</g>
</g>
</svg>
